<svg xmlns="http://www.w3.org/2000/svg" width="654" height="647" fill="none"><g clip-path="url(#a)"><path fill="#F2F2F2" d="m378.328 630.836-184.137.626c-48.852-15.06-88.876-67.367-89.129-145.791a227.681 227.681 0 0 1 2.602-35.286l148.313-34.186 114.415-26.371a230.818 230.818 0 0 1 23.503 25.072l-109.407 59.27-51.612 27.962 57.996-20.528 120.375-42.607a301.813 301.813 0 0 1 20.017 36.82l-36.32 38.51 41.086-27.596c.176.423.351.846.525 1.27 26.039 63.423-6.269 142.658-58.227 142.835ZM348.067 372.078c-27.846 8.205-62.081 18.572-97.28 29.348-50.893 15.584-103.799 32.029-142.316 44.051l.025-.141c1.424-8.436 4.771-16.407 9.769-23.263 28.532-38.061 64.864-64.649 105.299-74.523h.003a148.092 148.092 0 0 1 34.706-4.248c32.17-.11 62.642 10.242 89.794 28.776Z"/><path fill="#3F3D56" d="M228.733 646.999c69.213 0 125.321-8.302 125.321-18.544s-56.108-18.545-125.321-18.545c-69.212 0-125.32 8.303-125.32 18.545s56.108 18.544 125.32 18.544Z"/><path fill="#FBBEBE" d="M184.149 455.373v28.847l20.083 2.473 12.05-15.66-9.64-19.781-22.493 4.121ZM260.466 574.059l10.443 28.847 19.28-6.594-14.46-23.902-15.263 1.649Z"/><path fill="#2F2E41" d="M236.365 328.445s-104.434-10.715-101.22 18.956c3.213 29.672 49.003 114.565 49.003 114.565l30.527-5.77s-21.69-34.616-20.083-46.155c1.606-11.539-4.82-27.199-4.82-27.199l15.263 2.473 8.837 14.011 18.477 97.256 28.117 87.366 20.886-5.769s-11.246-36.265-8.033-47.804c3.213-11.539-15.263-56.046-15.263-56.046l12.853-77.475s24.903-7.418 17.673-32.968c-7.23-25.551-52.217-35.441-52.217-35.441Z"/><path fill="#2F2E41" d="M192.985 475.154s-12.05-9.89-11.247-5.769a30.344 30.344 0 0 1 0 9.066l-11.247 25.55s-27.313 25.551-2.41 26.375c24.904.824 37.757-25.551 37.757-25.551s34.544-26.374 30.527-30.495c-4.016-4.121-25.097-13.586-25.097-13.586s-7.036 20.18-18.283 14.41ZM270.106 589.718s-11.247-10.715-12.051-5.77c-.803 4.946-1.606 11.539-1.606 11.539l-16.87 16.484s-24.101 23.902-3.214 24.726a39.48 39.48 0 0 0 17.619-3.258 40.438 40.438 0 0 0 14.515-10.753s30.527-6.594 28.92-11.539c-1.607-4.945-9.663-24.076-13.266-24.813-3.604-.737-4.407 9.978-14.047 3.384Z"/><path fill="#FBBEBE" d="M231.545 209.761c13.754 0 24.904-11.439 24.904-25.551 0-14.111-11.15-25.55-24.904-25.55-13.753 0-24.903 11.439-24.903 25.55 0 14.112 11.15 25.551 24.903 25.551Z"/><path fill="#FBBEBE" d="M220.299 201.517s10.443 28.848 9.64 31.32c-.804 2.473 32.937-20.605 32.937-20.605s-14.461-3.297-14.461-16.484l-28.116 5.769ZM311.879 243.553s14.46 14.835 16.87 19.781c2.41 4.945 57.037 67.584 57.037 67.584s36.151 43.683 21.691 44.507c-14.461.825-32.937-34.616-32.937-34.616s-51.414-38.738-53.824-47.804l-29.724-31.32 20.887-18.132Z"/><path fill="#575A89" d="M236.365 226.244h-8.836l-12.051 19.781s-12.05 10.715-3.213 32.969c8.837 22.253 16.067 50.276 16.067 50.276s25.707 3.297 30.527 11.539c4.82 8.242 32.133 34.616 32.133 34.616s4.82-17.308 3.214-42.858c-1.607-25.551 0-64.288 0-64.288l-1.607-51.101s-31.028-7.378-33.187-6.162c-2.16 1.217-23.047 15.228-23.047 15.228Z"/><path fill="#575A89" d="m280.549 219.65 12.05-2.472s12.854 8.242 24.904 32.144c0 0-25.707 17.308-28.117 16.484-2.41-.824-8.837-46.156-8.837-46.156Z"/><path fill="#FBBEBE" d="M206.642 275.695s-18.477 30.496-12.854 42.035c5.624 11.539 12.854 10.714 12.854 10.714s13.657-2.472 13.657-14.011 5.623-12.363 5.623-12.363 35.347-29.672 21.69-29.672-32.133 20.606-32.133 20.606l-.804-18.957-8.033 1.648Z"/><path fill="#575A89" d="M218.692 245.201s-12.05 3.297-14.46 16.484c-2.41 13.188-1.607 19.781-1.607 19.781l16.067-1.648v-34.617Z"/><path fill="#000" d="M196.198 311.136s12.854-17.308 14.46-14.836l-14.46 14.836Z" opacity=".1"/><path fill="#2F2E41" d="M244.196 153.278s-13.207-13.539-25.921-4.449c-12.714 9.09-18.635 17.748-17.216 23.627 1.419 5.88 5.383 14.005 5.383 14.005s-2.646-12.189 8.044-13.383c10.689-1.194 25.304-8.864 25.304-8.864l10.57 21.666s1.285-5.121 5.246-3.768c3.961 1.352.182-27.518-11.41-28.834Z"/><path fill="#638DFF" d="M153.824 606.526c0 12.018-6.963 16.214-15.553 16.214a24.022 24.022 0 0 1-1.777-.062c-7.753-.563-13.776-4.975-13.776-16.152 0-11.566 14.407-26.161 15.489-27.241l.002-.002.062-.062s15.553 15.288 15.553 27.305Z"/><path fill="#3F3D56" d="m137.705 620.902 5.688-8.155-5.702 9.05-.015.936a24.063 24.063 0 0 1-1.182-.055l.613-12.023-.005-.094.011-.017.058-1.136-5.717-9.073 5.735 8.221.013.242.463-9.085-4.894-9.375 4.954 7.781.482-18.834.002-.064v.062l-.08 14.852 4.872-5.888-4.892 7.167-.129 8.134 4.549-7.806-4.568 9.002-.072 4.522 6.605-10.864-6.63 12.442-.159 10.058ZM507.153 181.049s-4.942 15.767-12.655 38.421a1857.61 1857.61 0 0 1-8.299 23.939c-4.195 11.84-8.816 24.506-13.655 37.171a1174.273 1174.273 0 0 1-9.127 23.185c-16.62 40.768-34.321 76.087-45.919 76.583-26.058 1.108-81.874-177.765-87.966-197.53-.357-1.156-.54-1.769-.54-1.769h178.161Z"/><path fill="#000" d="M494.498 219.47a1857.61 1857.61 0 0 1-8.299 23.939l-69.023-62.36h34.793l42.529 38.421ZM472.544 280.58a1174.273 1174.273 0 0 1-9.127 23.185L329.532 182.818c-.357-1.156-.54-1.769-.54-1.769h33.379l110.173 99.531Z" opacity=".1"/><path fill="#638DFF" d="M421.162 22.625c-8.167 6.638-21.082 4.128-28.932 11.158-5.369 4.809-6.801 13.032-5.336 20.188 1.465 7.156 5.358 13.505 9.275 19.614 2.703 4.217 5.507 8.466 9.305 11.673 5.31 4.483 12.125 6.57 18.806 8.246a228.702 228.702 0 0 0 44.36 6.598c6.671.329 14.226 0 18.72-5.068 2.618-2.952 3.67-6.996 4.437-10.907 1.2-6.12 1.866-12.707-.613-18.406-2.037-4.685-5.96-8.196-9.931-11.313-12.455-9.779-27.125-17.874-34.726-31.949-3.022-5.594-4.886-12.077-9.465-16.417-5.97-5.658-19.253-7.971-26.281-4.192 1.085 2.54 15.277 16.796 10.381 20.775Z"/><path fill="#63DAFF" d="M352.529 88.598c-2.421 8.615-4.652 17.731-2.613 26.45 2.688 11.495 12.512 20.105 23.289 24.29 10.777 4.184 22.529 4.673 34.044 5.114l60.287 2.31c7.577.291 15.299.609 22.42 3.281 5.869 2.203 12.844 5.829 17.737 1.841 2.219-1.809 3.216-4.738 4.003-7.531 2.563-9.09 3.996-19.071.55-27.848-3.948-10.057-13.686-16.666-23.795-19.825-10.11-3.16-20.817-3.467-31.322-4.66a184.577 184.577 0 0 1-31.492-6.396c-8.613-2.546-17.338-5.906-23.708-12.375-3.446-3.499-6.055-7.766-9.303-11.459-18.606-21.154-35.52 10.527-40.097 26.808Z"/><path fill="#638DFF" d="M339.282 128.177c-5.864 2.695-10.951 6.898-14.767 12.201a38.851 38.851 0 0 0-7.015 18.071 39.196 39.196 0 0 0 2.547 19.276c2.452 6.093 6.397 11.433 11.451 15.502 9.18 7.392 21.193 9.962 32.832 10.823 11.366.84 22.78.262 34.161-.316l100.695-5.117c5.903-.3 12.583-.997 16.186-5.803 2.689-3.587 2.847-8.534 2.205-13.011-2.309-16.104-14.162-30.362-29.298-35.243-5.708-1.841-11.718-2.423-17.676-2.995l-43.166-4.144c-5.812-.558-11.659-1.122-17.293-2.693-17.07-4.761-32.323-18.66-49.898-16.602-11.923 1.396-21.74 9.96-30.401 18.483"/><path fill="#000" d="M395.659 58.404s14.088 26.097 86.355 36.634l-86.355-36.634ZM355.685 126.756s26.181 27.169 134.227 27.169l-134.227-27.169Z" opacity=".1"/><path fill="#3F3D56" d="M416.348 45.432c3.809 0 6.897-1.056 6.897-2.359 0-1.302-3.088-2.358-6.897-2.358s-6.896 1.056-6.896 2.358c0 1.303 3.087 2.359 6.896 2.359ZM439.337 60.762c3.809 0 6.897-1.056 6.897-2.358 0-1.303-3.088-2.36-6.897-2.36s-6.897 1.057-6.897 2.36c0 1.302 3.088 2.358 6.897 2.358ZM465.774 77.272c3.809 0 6.896-1.056 6.896-2.359 0-1.302-3.087-2.358-6.896-2.358-3.809 0-6.897 1.056-6.897 2.358 0 1.303 3.088 2.359 6.897 2.359ZM373.819 84.348c3.809 0 6.897-1.056 6.897-2.359 0-1.302-3.088-2.358-6.897-2.358-3.808 0-6.896 1.056-6.896 2.358 0 1.303 3.088 2.359 6.896 2.359ZM432.44 106.754c3.809 0 6.897-1.056 6.897-2.358 0-1.303-3.088-2.359-6.897-2.359s-6.896 1.056-6.896 2.359c0 1.302 3.087 2.358 6.896 2.358ZM349.681 152.746c3.809 0 6.897-1.056 6.897-2.358 0-1.303-3.088-2.359-6.897-2.359-3.808 0-6.896 1.056-6.896 2.359 0 1.302 3.088 2.358 6.896 2.358ZM393.36 109.114c3.809 0 6.896-1.056 6.896-2.359s-3.087-2.359-6.896-2.359c-3.809 0-6.897 1.056-6.897 2.359s3.088 2.359 6.897 2.359ZM366.923 170.436c3.809 0 6.897-1.056 6.897-2.359 0-1.302-3.088-2.358-6.897-2.358s-6.897 1.056-6.897 2.358c0 1.303 3.088 2.359 6.897 2.359ZM411.751 159.823c3.808 0 6.896-1.056 6.896-2.359s-3.088-2.359-6.896-2.359c-3.809 0-6.897 1.056-6.897 2.359s3.088 2.359 6.897 2.359Z"/><path fill="#638DFF" d="M438.762 216.429c4.127 0 7.472-7.128 7.472-15.921 0-8.792-3.345-15.92-7.472-15.92-4.126 0-7.471 7.128-7.471 15.92 0 8.793 3.345 15.921 7.471 15.921Z"/><path fill="#638DFF" d="M447.958 222.325c4.126 0 7.471-7.128 7.471-15.92 0-8.793-3.345-15.921-7.471-15.921-4.127 0-7.472 7.128-7.472 15.921 0 8.792 3.345 15.92 7.472 15.92Z"/><path fill="#3F3D56" d="M432.628 359.914c.062-.314 1.611-7.844 9.716-18.828 7.437-10.077 22.064-25.072 49.519-39.28 52.012-26.917 63.651-77.487 63.762-77.995l1.39.321c-.028.129-2.939 13.076-12.309 29.189-12.434 21.35-30.542 38.621-52.201 49.79-51.924 26.871-58.421 56.794-58.481 57.093l-1.396-.29Z"/><path fill="#638DFF" d="M558.285 218.402c5.113 0 9.259-4.253 9.259-9.499s-4.146-9.499-9.259-9.499-9.258 4.253-9.258 9.499 4.145 9.499 9.258 9.499Z"/><path fill="#3F3D56" d="M556.453 264.488c5.113 0 9.258-4.253 9.258-9.499s-4.145-9.499-9.258-9.499c-5.113 0-9.258 4.253-9.258 9.499s4.145 9.499 9.258 9.499Z"/><path fill="#638DFF" d="M526.336 267.722c5.113 0 9.258-4.253 9.258-9.499s-4.145-9.498-9.258-9.498c-5.113 0-9.258 4.252-9.258 9.498 0 5.246 4.145 9.499 9.258 9.499ZM531.017 299.079c5.113 0 9.258-4.252 9.258-9.498 0-5.246-4.145-9.499-9.258-9.499-5.113 0-9.258 4.253-9.258 9.499s4.145 9.498 9.258 9.498Z"/><path fill="#3F3D56" d="M487.702 299.722c5.113 0 9.258-4.253 9.258-9.499s-4.145-9.498-9.258-9.498c-5.113 0-9.258 4.252-9.258 9.498 0 5.246 4.145 9.499 9.258 9.499ZM436.498 364.074s8.706-23.603 40.694-17.087l-40.694 17.087ZM428.429 355.82s13.389-21.172-10.666-43.765l10.666 43.765Z"/><path fill="#F2F2F2" d="m647.617 367.058-15.326-6.205-15.327-6.205 12.901-10.515 12.901-10.516 2.426 16.721 2.425 16.72ZM30.653 259.912l-15.326-6.205L0 247.502l12.9-10.515 12.902-10.516 2.426 16.72 2.425 16.721ZM571.3 458.545l-15.326-6.206-15.327-6.204 12.901-10.515 12.901-10.516 2.426 16.72 2.425 16.721ZM654 516.863l-14.476 8.074-14.474 8.076.421-16.899.421-16.899 14.054 8.824L654 516.863ZM108.533 193.775l-14.476 8.075-14.474 8.075.42-16.899.422-16.899 14.054 8.824 14.054 8.824Z"/></g><defs><clipPath id="a"><path fill="#fff" d="M0 0h654v647H0z"/></clipPath></defs></svg>