<svg xmlns="http://www.w3.org/2000/svg" width="615" height="529" fill="none"><g clip-path="url(#a)"><path fill="#F0F0F0" d="M196.188 72.996c-4.937-26.426 2.836-56.49 24.443-72.486a123.86 123.86 0 0 0 25.822 81.025c6.935 8.89 15.575 18.055 15.306 29.326-.166 7.014-3.959 13.548-8.958 18.47-4.999 4.922-11.156 8.471-17.24 11.965l-.947 1.473c-17.835-20.116-33.488-43.346-38.426-69.773Z"/><path fill="#fff" d="M221.025.914a105.868 105.868 0 0 0-6.989 64.761 45.613 45.613 0 0 0 4.827 13.445 26.151 26.151 0 0 0 9.879 9.581c3.77 2.179 7.88 3.97 11.055 7.028a16.006 16.006 0 0 1 4.713 12.217c-.152 5.622-2.315 10.855-4.609 15.898-2.546 5.6-5.279 11.377-5.114 17.672.02.763-1.165.75-1.185-.012-.287-10.954 7.632-19.751 9.396-30.261.824-4.905.174-10.087-3.274-13.889-3.015-3.324-7.251-5.175-11.088-7.349a27.91 27.91 0 0 1-10.008-9.008 42.163 42.163 0 0 1-5.327-13.21 102.751 102.751 0 0 1-2.328-32.017A107.764 107.764 0 0 1 220.008.305c.31-.694 1.325-.08 1.017.61Z"/><path fill="#fff" d="M212.162 58.747a15.885 15.885 0 0 1-16.571-12.184c-.173-.742.972-1.046 1.146-.303a14.705 14.705 0 0 0 15.438 11.302c.76-.057.743 1.128-.013 1.185ZM226.684 87.848a30.611 30.611 0 0 0 7.673-20.95c-.017-.763 1.168-.75 1.185.012a31.843 31.843 0 0 1-8.029 21.784c-.508.571-1.334-.279-.829-.846ZM213.328 24.256a8.99 8.99 0 0 0 7.987-3c.5-.576 1.326.274.829.847a10.072 10.072 0 0 1-8.828 3.337.613.613 0 0 1-.587-.598.598.598 0 0 1 .599-.586Z"/><path fill="#F0F0F0" d="M308.99 22.368c-.302.37-.604.739-.904 1.117a118.399 118.399 0 0 0-10.837 15.858c-.252.427-.502.864-.741 1.297a124.815 124.815 0 0 0-14.565 43.588 121.156 121.156 0 0 0-1.112 18.385c.134 8.49.954 17.685-1.648 25.494a20.953 20.953 0 0 1-.937 2.397l-41.762 13.306c-.11-.017-.217-.025-.328-.042l-1.643.607c-.027-.317-.048-.646-.075-.962-.017-.184-.024-.371-.041-.554-.008-.124-.015-.247-.03-.358-.002-.041-.005-.082-.005-.114-.014-.111-.015-.215-.027-.317a346.806 346.806 0 0 1-.334-5.529c-.003-.01-.003-.01.003-.022-.717-14.077-.265-28.337 2.337-42.075.079-.414.154-.836.251-1.256a115.68 115.68 0 0 1 5.116-18.17c1.213-3.23 2.59-6.398 4.124-9.49a85.012 85.012 0 0 1 15.436-21.648c12.459-12.68 28.834-21.235 46.381-21.504.449-.007.889-.01 1.341-.008Z"/><path fill="#fff" d="M309.065 22.928a105.868 105.868 0 0 0-44.571 47.5 45.606 45.606 0 0 0-4.24 13.641c-.52 4.64.211 9.336 2.119 13.598 1.699 4.01 3.901 7.915 4.595 12.268a16.003 16.003 0 0 1-3.592 12.591c-3.506 4.398-8.384 7.274-13.251 9.92-5.405 2.938-11.065 5.904-14.724 11.031-.443.621-1.381-.103-.939-.723 6.366-8.919 17.985-11.175 25.722-18.505 3.611-3.42 6.212-7.949 5.748-13.06-.406-4.47-2.674-8.499-4.429-12.544a27.906 27.906 0 0 1-2.567-13.218 42.134 42.134 0 0 1 3.7-13.754 102.732 102.732 0 0 1 17.418-26.966A107.751 107.751 0 0 1 308.62 21.83c.666-.367 1.107.733.445 1.098Z"/><path fill="#fff" d="M267.17 63.77a15.884 15.884 0 0 1-5.896-19.705c.309-.697 1.407-.25 1.097.448a14.71 14.71 0 0 0 5.522 18.318c.642.412-.085 1.348-.723.938ZM261.244 95.748a30.614 30.614 0 0 0 18.74-12.107c.446-.62 1.383.104.939.723a31.847 31.847 0 0 1-19.527 12.56c-.749.15-.897-1.027-.152-1.176ZM288.866 36.933a8.998 8.998 0 0 0 8.183 2.414c.747-.16.894 1.017.152 1.175a10.074 10.074 0 0 1-9.058-2.65.613.613 0 0 1-.107-.832.593.593 0 0 1 .83-.107Z"/><path fill="#FFB6B6" d="M434.574 200.328c.11.484.182.977.215 1.472l38.571 22.252 9.375-5.397 9.995 13.084-15.669 11.168a7.181 7.181 0 0 1-8.618-.21l-39.773-31.378a9.425 9.425 0 1 1 5.904-10.991Z"/><path fill="#3F3D56" d="M473.895 221.595a4.047 4.047 0 0 1 2.015-2.694l17.808-9.702a11.218 11.218 0 0 1 15.699 2.173 11.22 11.22 0 0 1-2.133 15.704l-14.272 14.499a4.04 4.04 0 0 1-6.105-.401l-12.288-16.292a4.04 4.04 0 0 1-.724-3.287Z"/><path fill="#2F2E41" d="M504.904 165.976c2.562-8.166 8.389-15.655 16.446-18.415 8.059-2.761 19.858 1.444 25.916 7.482 11.081 11.044 11.422 24.563 3.809 36.553-1.514-.08-6.74-.14-8.272-.197l-2.168-7.226v7.155c-11.963-.37-24.418-.139-36.879.101-1.117-8.489-1.414-17.288 1.148-25.453Z"/><path fill="#FFB6B6" d="M502.281 507.933H491.37l-5.191-42.087 16.104.001-.002 42.086ZM569.528 507.933h-10.911l-5.191-42.087 16.104.001-.002 42.086ZM537.668 249.442l2.472 6.428-.494 6.429-48.387 16.759 2.401-28.132 5.439-6.428 38.569 4.944Z"/><path fill="#FFB7B7" d="M522.369 191.597c9.544 0 17.281-7.738 17.281-17.282 0-9.545-7.737-17.282-17.281-17.282-9.545 0-17.282 7.737-17.282 17.282 0 9.544 7.737 17.282 17.282 17.282Z"/><path fill="#2F2E41" d="M548.502 278.938v10.983s12.856 16.707 5.933 29.563l19.836 171.092h-20.768l-34.669-144.391-14.778 141.424h-17.8l-2.123-112.477a239.058 239.058 0 0 1 14.568-86.799l49.801-9.395ZM510.494 151.811a21.708 21.708 0 0 1 33.001 18.944c-9.66.444-19.807.56-30.097.58l-2.432-5.952-1.433 5.956c-3.136 0-6.277-.004-9.424-.012a22.158 22.158 0 0 1 10.385-19.516ZM507.162 528.65h-7.743l-1.382-7.31-3.539 7.31h-20.535a4.62 4.62 0 0 1-4.407-3.243 4.615 4.615 0 0 1 1.784-5.172l16.399-11.325v-7.39l17.248 1.029 2.175 26.101ZM575.398 528.65h-7.742l-1.382-7.31-3.54 7.31h-20.535a4.615 4.615 0 0 1-2.623-8.415l16.399-11.325v-7.39l17.248 1.029 2.175 26.101Z"/><path fill="#3F3D56" d="M556.364 314.164c.961-13.2-.029-26.469-2.937-39.38-3.671-16.295-8.335-37.029-8.425-37.565a.163.163 0 0 1-.003-.031l-1.422-30.371a.351.351 0 0 0-.339-.335l-9.833-.33a.351.351 0 0 1-.339-.351 5.567 5.567 0 0 0-1.634-3.945 5.587 5.587 0 0 0-3.944-1.633h-19.64a5.218 5.218 0 0 0-5.179 4.572.348.348 0 0 1-.353.312l-7.642-.257a.35.35 0 0 0-.347.245l-.532 1.689a176.936 176.936 0 0 0-6.273 76.85c.925 6.856.505 17.166.155 22.91a4.275 4.275 0 0 0 4.02 4.527c14.208.818 54.434 20.281 64.064 10.989.023-.023.28-3.451.603-7.896Z"/><path fill="#FFB6B6" d="M477.575 200.328c.11.484.182.977.215 1.472l38.571 22.252 9.375-5.397 9.995 13.084-15.669 11.168a7.181 7.181 0 0 1-8.618-.21l-39.773-31.378a9.425 9.425 0 1 1 5.904-10.991Z"/><path fill="#3F3D56" d="M516.896 221.596a4.026 4.026 0 0 1 .714-1.567 4.03 4.03 0 0 1 1.301-1.128l17.808-9.702a11.219 11.219 0 0 1 15.697 2.175 11.22 11.22 0 0 1-2.131 15.703l-14.272 14.499a4.034 4.034 0 0 1-6.105-.402l-12.288-16.292a4.042 4.042 0 0 1-.724-3.286Z"/><path fill="#F0F0F0" d="M45 468.695c24.853 0 45-20.147 45-45s-20.147-45-45-45-45 20.147-45 45 20.147 45 45 45Z"/><path fill="#fff" d="M442.652 267.539 116.544 417.262a19.274 19.274 0 0 1-25.533-9.465L10.535 232.515A19.278 19.278 0 0 1 20 206.981L346.108 57.259a19.278 19.278 0 0 1 25.534 9.465l80.475 175.282a19.274 19.274 0 0 1-9.465 25.533Z"/><path fill="#E4E4E4" d="M25.424 218.797a6.26 6.26 0 0 0-3.075 8.295l80.476 175.282a6.263 6.263 0 0 0 8.295 3.075l326.108-149.723a6.265 6.265 0 0 0 3.075-8.295L359.827 72.149a6.26 6.26 0 0 0-8.295-3.075L25.424 218.797Z"/><path fill="#CACACA" d="M442.652 267.539 116.544 417.262a19.274 19.274 0 0 1-25.533-9.465L10.535 232.515A19.278 19.278 0 0 1 20 206.981L346.108 57.259a19.278 19.278 0 0 1 25.534 9.465l80.475 175.282a19.274 19.274 0 0 1-9.465 25.533Zm-421.817-58.74a17.275 17.275 0 0 0-8.482 22.881l80.475 175.283a17.276 17.276 0 0 0 22.882 8.481l326.108-149.722a17.276 17.276 0 0 0 8.482-22.881L369.824 67.558a17.272 17.272 0 0 0-22.881-8.482L20.835 208.8Z"/><path fill="#CACACA" d="M361.166 187.999 102.092 306.945a11.15 11.15 0 0 1-12.605-2.343l-75.8-77.733a11.115 11.115 0 0 1-2.973-9.791 11.126 11.126 0 0 1 6.283-8.077L349.014 55.946a11.127 11.127 0 0 1 15.706 8.82h.044l2.88 112.841a11.11 11.11 0 0 1-6.478 10.392ZM349.863 57.757l-332.03 153.06a9.12 9.12 0 0 0-5.152 6.625 9.127 9.127 0 0 0 2.439 8.031l75.8 77.733a9.146 9.146 0 0 0 10.338 1.921l259.073-118.946a9.109 9.109 0 0 0 5.314-8.523L362.79 65.816a9.121 9.121 0 0 0-12.927-8.059Z"/><path fill="#fff" d="m198.703 348.913-80.716 37.059a4.918 4.918 0 0 1-5.387-.859 4.9 4.9 0 0 1-1.265-5.306 4.9 4.9 0 0 1 2.557-2.754l80.717-37.059a4.905 4.905 0 0 1 6.502 2.414 4.908 4.908 0 0 1-2.408 6.505Z"/><path fill="#CACACA" d="M257.754 234.379a25.223 25.223 0 0 1-4.413 27.689 25.22 25.22 0 0 1-41.427-6.643"/><path fill="#fff" d="M439.745 505.953H80.909a19.28 19.28 0 0 1-19.255-19.256V293.824a19.276 19.276 0 0 1 19.255-19.256h358.836A19.278 19.278 0 0 1 459 293.824v192.873a19.28 19.28 0 0 1-19.255 19.256Z"/><path fill="#638DFF" d="M80.909 287.568a6.263 6.263 0 0 0-6.256 6.256v192.873a6.26 6.26 0 0 0 6.256 6.256h358.836a6.263 6.263 0 0 0 6.255-6.256V293.824a6.263 6.263 0 0 0-6.255-6.256H80.909Z"/><path fill="#3F3D56" d="M439.745 505.953H80.909a19.28 19.28 0 0 1-19.255-19.256V293.824a19.276 19.276 0 0 1 19.255-19.256h358.836A19.278 19.278 0 0 1 459 293.824v192.873a19.28 19.28 0 0 1-19.255 19.256ZM80.909 276.568a17.278 17.278 0 0 0-17.256 17.256v192.873a17.276 17.276 0 0 0 17.256 17.256h358.836A17.278 17.278 0 0 0 457 486.697V293.824a17.278 17.278 0 0 0-17.255-17.256H80.909Z"/><path fill="#3F3D56" d="M398.878 399.668H113.805a11.14 11.14 0 0 1-10.478-7.388L66.874 290.01a11.121 11.121 0 0 1 5.348-13.604 11.109 11.109 0 0 1 5.115-1.254l365.597-.562a11.131 11.131 0 0 1 9.012 4.582 11.121 11.121 0 0 1 1.58 9.986l.042.018-44.466 103.751a11.11 11.11 0 0 1-10.224 6.741Zm44.071-123.078-365.61.562a9.117 9.117 0 0 0-7.447 3.871 9.119 9.119 0 0 0-1.134 8.315l36.453 102.27a9.142 9.142 0 0 0 8.594 6.06h285.073a9.11 9.11 0 0 0 8.386-5.529l44.071-102.832a9.118 9.118 0 0 0-8.386-12.717Z"/><path fill="#fff" d="M184.093 478.118H95.276a4.908 4.908 0 0 1-3.47-8.376 4.908 4.908 0 0 1 3.47-1.437h88.817a4.907 4.907 0 1 1 0 9.813Z"/><path fill="#3F3D56" d="M285.547 398.668a25.217 25.217 0 0 1-25.22 25.22 25.22 25.22 0 0 1-25.221-25.22"/><path fill="#F0F0F0" d="M126 108.695a9 9 0 0 0 9-9 9 9 0 0 0-9-9 9 9 0 0 0-9 9 9 9 0 0 0 9 9ZM9 324.695a9 9 0 1 0 0-18 9 9 0 0 0 0 18ZM459 155.695a9 9 0 1 0 0-18 9 9 0 0 0 0 18Z"/><path fill="#CACACA" d="M613.056 528.651H441.762a1.191 1.191 0 0 1 0-2.381h171.294a1.19 1.19 0 0 1 0 2.381Z"/></g><defs><clipPath id="a"><path fill="#fff" d="M0 0h614.247v528.65H0z"/></clipPath></defs></svg>