<svg xmlns="http://www.w3.org/2000/svg" width="287" height="163" fill="none"><g clip-path="url(#a)"><path fill="#FFF5F7" d="M53.338 94.878H2.67c-1.472 0-2.67-1.061-2.67-2.367V20.152c0-1.305 1.198-2.367 2.67-2.367h50.668c1.473 0 2.67 1.062 2.67 2.367v72.36c0 1.305-1.197 2.366-2.67 2.366ZM111.086 94.878H60.418c-1.472 0-2.67-1.061-2.67-2.367V20.152c0-1.305 1.198-2.367 2.67-2.367h50.668c1.473 0 2.671 1.062 2.671 2.367v72.36c0 1.305-1.198 2.366-2.671 2.366Z"/><path fill="#638DFF" d="M168.834 94.878h-50.668c-1.473 0-2.67-1.061-2.67-2.367V20.152c0-1.305 1.197-2.367 2.67-2.367h50.668c1.472 0 2.67 1.062 2.67 2.367v72.36c0 1.305-1.198 2.366-2.67 2.366Z"/><path fill="#FFF5F7" d="M226.582 94.878h-50.668c-1.473 0-2.67-1.061-2.67-2.367V20.152c0-1.305 1.197-2.367 2.67-2.367h50.668c1.472 0 2.67 1.062 2.67 2.367v72.36c0 1.305-1.198 2.366-2.67 2.366ZM284.33 94.878h-50.668c-1.472 0-2.67-1.061-2.67-2.367V20.152c0-1.305 1.198-2.367 2.67-2.367h50.668c1.472 0 2.67 1.062 2.67 2.367v72.36c0 1.305-1.198 2.366-2.67 2.366Z"/><path fill="#2F2E43" d="m183.538 6.873 5.445-3.756s6.213 1.717 6.373 1.788c.16.07 9.641 19.561 9.641 19.561s-24.287 11.018-22.511 9.944c1.776-1.071 1.408-15.593-.244-17.487-1.656-1.897-.244-6.653-.244-6.653l1.533-3.397h.007Z"/><path fill="#E7979A" d="M198.588 15.654h-7.381v10.383l8.138-2.372-.757-8.01Z"/><path fill="#E7979A" d="M192.215 18.525c4.478 0 8.109-3.218 8.109-7.188 0-3.97-3.631-7.189-8.109-7.189-4.479 0-8.11 3.219-8.11 7.189s3.631 7.188 8.11 7.188Z"/><path fill="#2F2E43" d="m182.115 10.028 1.987.3c1.856-6.582 6.056-4.433 6.457-4.507.4-.075 6.373 5.72 5.889 11.585-.484 5.866 8.069 8.615 8.069 8.615s2.988 4.978.324 13.99c-2.664 9.01 2.984 12.034 2.984 12.034 11.138-.839 4.441-14.61 2.665-17.113-1.776-2.504-.564-6.866-.564-6.866 2.744-2.145-.485-6.865-.485-6.865s.568-6.295-1.128-7.511c-1.696-1.217-1.776-4.22-1.776-4.22C203.549-2.045 193.787.17 193.787.17c-12.506-1.216-11.672 9.857-11.672 9.857Z"/><path fill="#E69B9E" d="M195.514 146.16h-8.095v10.178h8.095V146.16Z"/><path fill="#36344E" d="M179.536 162.5c-.851 0-1.608-.018-2.179-.065-2.15-.175-4.201-1.581-5.233-2.404-.462-.369-.611-.958-.37-1.466.173-.365.518-.637.947-.745l5.682-1.439 9.199-5.502.102.163c.038.061.942 1.503 1.244 2.478.115.371.085.68-.09.919a.971.971 0 0 1-.426.316c.167.155.688.468 2.296.696 2.344.33 2.84-1.826 2.86-1.917l.015-.072.07-.04c1.117-.638 1.804-.927 2.041-.866.148.039.396.105 1.061 5.976.068.184.535 1.535.217 2.827-.346 1.405-7.271.922-8.656.811-.04.004-5.226.33-8.78.33Z"/><path fill="#E69B9E" d="m218.56 138.166-6.869 3.797 6.076 8.636 6.869-3.797-6.076-8.636Z"/><path fill="#36344E" d="M209.439 161.106c-.95 0-1.823-.101-2.445-.198-.613-.097-1.091-.527-1.19-1.071-.071-.391.06-.783.359-1.077l3.962-3.885 4.521-8.984.184.091c.069.033 1.697.833 2.536 1.519.319.261.477.537.471.821a.813.813 0 0 1-.172.469c.233.054.863.074 2.363-.487 2.186-.818 1.32-2.881 1.282-2.968l-.03-.069.036-.066c.567-1.065.976-1.634 1.215-1.692.149-.037.399-.096 4.468 4.573.166.124 1.37 1.052 1.871 2.297.546 1.355-5.62 4.193-6.861 4.748-.038.028-6.491 4.185-9.14 5.366-1.05.469-2.295.613-3.43.613ZM201.473 61.035h-22.661l-2.056 18.686 8.997 69.045h11.568l-4.627-39.878 18.766 36.004 10.282-6.38-14.652-33.611s5.234-29.282 1.121-36.574c-4.113-7.292-6.738-7.292-6.738-7.292Z"/><path fill="#638DFF" d="M212.745 62.175h-35.989l10.797-41.245h15.681l9.511 41.245Z"/><path fill="#E69B9E" d="M167.819 20.116c-.574-2.509.478-4.8 2.349-5.118 1.871-.318 3.852 1.458 4.426 3.969.245 1 .207 2.036-.113 3.022l2.275 10.659-5.882.824-1.619-10.595a5.981 5.981 0 0 1-1.436-2.76Z"/><path fill="#638DFF" d="M202.849 20.93h-13.83l-9.322 16.527-3.517-12.384-7.724.727s1.828 24.199 9.818 23.382c7.991-.818 26.624-22.622 24.575-28.252Z"/><path fill="#E69B9E" d="M218.295 83.785c.574 2.51-.478 4.801-2.349 5.119-1.871.318-3.852-1.459-4.426-3.969-.245-1-.207-2.037.113-3.023l-2.275-10.658 5.882-.824 1.619 10.594a5.981 5.981 0 0 1 1.436 2.761Z"/><path fill="#638DFF" d="M194.968 20.93s7.859-.295 8.266 0c2.143 1.553 14.726 57.573 14.726 57.573h-7.969L194.968 20.93Z"/><path fill="#3F3D58" d="M131.784 162.639c0 .2.181.361.407.361H275.24c.226 0 .407-.161.407-.361 0-.201-.181-.362-.407-.362H132.191c-.226 0-.407.161-.407.362Z"/></g><defs><clipPath id="a"><path fill="#fff" d="M0 0h287v163H0z"/></clipPath></defs></svg>