<svg xmlns="http://www.w3.org/2000/svg" width="130" height="213" fill="none"><g clip-path="url(#a)"><path fill="#484565" d="M18.44 212.518c0 .267.227.482.509.482h110.543a.494.494 0 0 0 .508-.482.494.494 0 0 0-.508-.483H18.949a.495.495 0 0 0-.509.483Z"/><path fill="#2F2E41" d="M76.573.133s-9.357-2.152-15.02 10.852c-4.719 10.84-8.067 16.63-4.236 20.562 1.37 1.407 3.327 2.165 5.342 2.23l21.567.672s7.918-19.71 3.105-26.836C82.518.482 76.573.133 76.573.133Z"/><path fill="#F6A6A9" d="M81.04 32.813 70.668 36.05V21.875h9.413l.96 10.938ZM73.08 204.596h-9.72l-5.633-49.287h15.02l.333 49.287Z"/><path fill="#2F2E41" d="M53.896 212.517c-1.02 0-1.93-.025-2.618-.085-2.584-.223-5.044-2.031-6.282-3.089a1.61 1.61 0 0 1-.445-1.885c.21-.471.624-.819 1.136-.957l6.82-1.849 11.045-7.074.124.211c.047.077 1.132 1.934 1.495 3.186.136.479.102.876-.107 1.18a1.13 1.13 0 0 1-.513.405c.201.199.829.6 2.755.892 2.819.426 3.408-2.347 3.434-2.465l.017-.093.085-.052c1.341-.819 2.165-1.192 2.451-1.115.18.048.474.133 1.273 7.682.081.235.64 1.974.26 3.632-.414 1.808-8.729 1.184-10.394 1.042-.047.004-6.274.426-10.54.426v.008h.004Z"/><path fill="#F6A6A9" d="M95.031 204.596h-9.715l-5.638-49.287h15.02l.333 49.287Z"/><path fill="#2F2E41" d="M75.852 212.517c-1.021 0-1.93-.025-2.618-.085-2.584-.223-5.044-2.031-6.282-3.089a1.61 1.61 0 0 1-.445-1.885c.21-.471.624-.819 1.136-.957l6.82-1.849 11.045-7.074.124.211c.047.077 1.131 1.934 1.494 3.186.137.479.103.876-.106 1.18a1.13 1.13 0 0 1-.513.405c.2.199.829.6 2.755.892 2.818.426 3.408-2.347 3.433-2.465l.017-.093.086-.052c1.34-.819 2.165-1.192 2.451-1.115.18.048.474.133 1.273 7.682.081.235.64 1.974.26 3.632-.414 1.808-8.729 1.184-10.394 1.042-.047.004-6.274.426-10.54.426v.008h.004Z"/><path fill="#DDDEDF" d="M97.829 83.539H50.612l16.971-53.021H86.41l11.42 53.02Z"/><path fill="#F6A6A9" d="M49.326 113.29c-.563 3.247-2.844 5.578-5.095 5.201-2.25-.377-3.621-3.312-3.058-6.559a7.74 7.74 0 0 1 1.58-3.588l2.572-13.73 7 1.39-3.28 13.386a7.675 7.675 0 0 1 .285 3.9h-.004Z"/><path fill="#DDDEDF" d="M70.556 30.526s-11.727-.292-12.962 2.635c-1.234 2.93-15.737 72.65-15.737 72.65h9.566l19.133-75.285Z"/><path fill="#F6A6A9" d="M73.046 25.223c5.71 0 10.34-4.394 10.34-9.815 0-5.42-4.63-9.814-10.34-9.814s-10.34 4.394-10.34 9.814 4.63 9.815 10.34 9.815Z"/><path fill="#2F2E41" d="M74.669 3.373s-13.274 18.741-11.04 30.433l-7.722-4.593S61.344 5.546 69.445 3.71l5.224-.34v.003ZM88.015 83.54H57.03l-16.955 66.049c-.312 2.79 1.55 5.392 4.407 6.118 9.302 2.363 31.62 5.716 65.406-3.616 3.25-.896 5.095-4.151 4.075-7.216l-25.95-61.332v-.004Z"/><path fill="#DDDEDF" d="m74.327 35.478 8.584-4.18c3.925-1.377 8.302-.915 11.813 1.254C105.4 39.143 126.447 53.676 117.4 60.86c-11.919 9.47-28.033-7.325-28.033-7.325L74.327 35.479Z"/><path fill="#638DFF" d="m44.933 45.596-.039.037A25.101 25.101 0 0 0 43.8 44.52c-10.02-9.511-26.265-9.51-36.284 0-10.02 9.51-10.02 24.931 0 34.442.38.362.774.706 1.172 1.04l-.038.037 36.284 34.442 36.285-34.442c10.02-9.511 10.02-24.932 0-34.443-10.02-9.51-26.265-9.51-36.285 0Z"/><path fill="#F6A6A9" d="M74.14 42.623c-2.986-1.67-4.451-4.533-3.268-6.393 1.183-1.857 4.561-2.007 7.55-.337a8.179 8.179 0 0 1 2.952 2.696l12.556 7.24-3.895 5.692-11.967-7.743a8.813 8.813 0 0 1-3.933-1.16h.004v.005Z"/><path fill="#DDDEDF" d="m82.672 49.185 3.57-8.095 17.446 5.48L95.885 58.9l-13.213-9.714Z"/></g><defs><clipPath id="a"><path fill="#fff" d="M0 0h130v213H0z"/></clipPath></defs></svg>