<svg xmlns="http://www.w3.org/2000/svg" width="549" height="476" fill="none"><g clip-path="url(#a)"><path fill="#3F3D56" d="M544.183 182.032a.984.984 0 0 1-.55-.167L277.263 2.69a4.947 4.947 0 0 0-2.76-.83 4.95 4.95 0 0 0-2.757.84L7.295 181.864a.992.992 0 0 1-.72.154.965.965 0 0 1-.622-.382.905.905 0 0 1-.16-.695.929.929 0 0 1 .395-.601L270.64 1.176A6.928 6.928 0 0 1 274.5 0a6.93 6.93 0 0 1 3.864 1.164l266.37 179.174a.936.936 0 0 1 .361.463.9.9 0 0 1 .007.58.924.924 0 0 1-.349.471.987.987 0 0 1-.57.18Z"/><path fill="#E6E6E6" d="M22.407 188.383 274.766 7.738 529.04 201.236 287.769 339.383l-130.99-28.839L22.407 188.383Z"/><path fill="#638DFF" d="M167.836 424.71H43.164a5.99 5.99 0 0 1-2.231-.426 5.83 5.83 0 0 1-1.892-1.219 5.612 5.612 0 0 1-1.265-1.826 5.46 5.46 0 0 1 0-4.309 5.623 5.623 0 0 1 1.265-1.826 5.846 5.846 0 0 1 1.892-1.219 6.01 6.01 0 0 1 2.231-.426h124.672a6.011 6.011 0 0 1 2.231.426c.707.282 1.35.697 1.892 1.219a5.631 5.631 0 0 1 1.265 1.826 5.463 5.463 0 0 1 0 4.309 5.62 5.62 0 0 1-1.265 1.826 5.838 5.838 0 0 1-1.892 1.219 5.991 5.991 0 0 1-2.231.426ZM87.893 400.523H43.164a6.01 6.01 0 0 1-2.231-.426 5.846 5.846 0 0 1-1.892-1.219 5.623 5.623 0 0 1-1.265-1.826 5.46 5.46 0 0 1 0-4.309 5.612 5.612 0 0 1 1.265-1.826 5.83 5.83 0 0 1 1.892-1.219 6.01 6.01 0 0 1 2.231-.427h44.73a6.01 6.01 0 0 1 2.23.427 5.83 5.83 0 0 1 1.893 1.219 5.613 5.613 0 0 1 1.264 1.826 5.458 5.458 0 0 1 0 4.309 5.624 5.624 0 0 1-1.264 1.826 5.847 5.847 0 0 1-1.892 1.219 6.008 6.008 0 0 1-2.232.426Z"/><path fill="#fff" d="M278.314 289a7.51 7.51 0 0 1-2.763-.523l-155.638-62.374V30.862a6.408 6.408 0 0 1 1.977-4.603 6.873 6.873 0 0 1 4.765-1.91h298.579a6.872 6.872 0 0 1 4.765 1.91 6.408 6.408 0 0 1 1.977 4.603v195.377l-.292.121-150.523 62.086a7.568 7.568 0 0 1-2.847.554Z"/><path fill="#3F3D56" d="M278.314 289.465a8.017 8.017 0 0 1-2.947-.557l-155.935-62.494V30.862a6.867 6.867 0 0 1 2.118-4.931 7.362 7.362 0 0 1 5.105-2.046h298.579a7.364 7.364 0 0 1 5.106 2.046 6.867 6.867 0 0 1 2.118 4.93v195.685L281.35 288.874a8.038 8.038 0 0 1-3.036.591Zm-156.956-64.294 154.744 62.017a6.09 6.09 0 0 0 4.496-.026l149.934-61.844V30.862a5.038 5.038 0 0 0-1.554-3.616 5.399 5.399 0 0 0-3.744-1.5H126.655a5.4 5.4 0 0 0-3.744 1.5 5.037 5.037 0 0 0-1.553 3.616V225.17Z"/><path fill="#3F3D56" d="M542.258 180.172h-.193l-110.57 45.602-151.283 62.394a5.05 5.05 0 0 1-3.738.019l-156.079-62.543L7.108 180.246l-.173-.074h-.193a6.871 6.871 0 0 0-4.765 1.909A6.41 6.41 0 0 0 0 186.684v282.804a6.41 6.41 0 0 0 1.977 4.603A6.871 6.871 0 0 0 6.742 476h535.516a6.872 6.872 0 0 0 4.765-1.909 6.41 6.41 0 0 0 1.977-4.603V186.684a6.41 6.41 0 0 0-1.977-4.603 6.872 6.872 0 0 0-4.765-1.909Zm4.816 289.316a4.576 4.576 0 0 1-1.411 3.289 4.91 4.91 0 0 1-3.405 1.363H6.742a4.909 4.909 0 0 1-3.405-1.363 4.574 4.574 0 0 1-1.41-3.289V186.684a4.58 4.58 0 0 1 1.348-3.226 4.912 4.912 0 0 1 3.284-1.426l113.836 45.621 155.338 62.254a7.086 7.086 0 0 0 5.24-.027l150.522-62.087 110.956-45.761a4.912 4.912 0 0 1 3.277 1.431 4.584 4.584 0 0 1 1.346 3.221v282.804Z"/><path fill="#638DFF" d="M276.759 233.636c-5.746.01-11.339-1.784-15.937-5.113l-.285-.207-60.015-44.381a26.043 26.043 0 0 1-6.865-7.55 25.157 25.157 0 0 1-3.351-9.513 24.89 24.89 0 0 1 .673-10.027 25.403 25.403 0 0 1 4.595-9.015 26.377 26.377 0 0 1 7.817-6.631 27.303 27.303 0 0 1 9.849-3.237 27.568 27.568 0 0 1 10.381.65 27.048 27.048 0 0 1 9.334 4.438l38.874 28.79 91.864-115.714a26.391 26.391 0 0 1 7.819-6.628 27.305 27.305 0 0 1 9.85-3.234 27.578 27.578 0 0 1 10.382.654 27.06 27.06 0 0 1 9.332 4.442l-.571.749.586-.739c5.605 4.161 9.272 10.3 10.197 17.069.926 6.769-.967 13.616-5.262 19.039L297.972 223.586a26.516 26.516 0 0 1-9.392 7.417 27.455 27.455 0 0 1-11.821 2.633Z"/></g><defs><clipPath id="a"><path fill="#fff" d="M0 0h549v476H0z"/></clipPath></defs></svg>