<svg xmlns="http://www.w3.org/2000/svg" width="447" height="113" fill="none"><path fill="#EC4B72" d="M21.227 75H3.573V12.493h35.2v13.6l-17.546-1.066v14.506h14.4V52.76l-14.4-1.067V75ZM60.65 54.2V75H42.945V12.493h7.04c1.706 0 4.248-.07 7.626-.213 3.378-.178 6.17-.267 8.374-.267 7.68 0 13.404 1.69 17.173 5.067 3.804 3.378 5.707 8.551 5.707 15.52 0 4.124-.907 7.787-2.72 10.987-1.778 3.2-4.143 5.742-7.094 7.626 1.6.391 2.97 1.298 4.107 2.72 1.173 1.423 2.08 3.111 2.72 5.067a65.07 65.07 0 0 1 1.653 5.867 108.406 108.406 0 0 0 1.654 5.813c.64 1.92 1.333 3.36 2.08 4.32h-19.68c-.391-.498-.694-1.884-.907-4.16a286.54 286.54 0 0 0-.907-8.267c-.355-3.235-.87-5.937-1.546-8.106H65.77c-.746-.036-1.404-.071-1.973-.107-.569-.036-1.173-.071-1.813-.107a25.313 25.313 0 0 0-1.334-.053Zm0-9.92h1.707c.889 0 1.636-.036 2.24-.107a15.794 15.794 0 0 0 1.973-.373c.747-.213 1.351-.533 1.814-.96.497-.427.96-.978 1.386-1.653.427-.676.747-1.547.96-2.614.214-1.066.32-2.31.32-3.733v-4.213c0-3.094-.817-5.245-2.453-6.454-1.6-1.244-3.911-1.866-6.933-1.866H60.65V44.28Zm52.096 6.56c0 5.902.445 10.009 1.333 12.32.925 2.311 2.525 3.467 4.8 3.467 1.672 0 2.934-.41 3.787-1.227.853-.853 1.493-2.578 1.92-5.173.462-2.631.693-6.56.693-11.787V35.587c0-5.085-.497-8.871-1.493-11.36-.995-2.49-2.631-3.734-4.907-3.734-2.275 0-3.875 1.227-4.8 3.68-.888 2.418-1.333 6.845-1.333 13.28V50.84Zm5.013 25.28c-2.951 0-5.617-.267-8-.8-2.346-.533-4.373-1.28-6.08-2.24a16.537 16.537 0 0 1-4.48-3.68 21.416 21.416 0 0 1-3.04-4.8c-.746-1.707-1.35-3.698-1.813-5.973a58.17 58.17 0 0 1-.96-6.88c-.178-2.311-.267-4.907-.267-7.787 0-4.267.214-7.982.64-11.147.463-3.164 1.298-6.133 2.507-8.906 1.209-2.81 2.809-5.085 4.8-6.827 2.027-1.742 4.622-3.111 7.787-4.107 3.2-.995 6.969-1.493 11.306-1.493 2.987 0 5.672.284 8.054.853 2.382.534 4.426 1.28 6.133 2.24a15.394 15.394 0 0 1 4.427 3.734 19.744 19.744 0 0 1 3.04 4.906c.782 1.707 1.404 3.716 1.866 6.027.463 2.311.783 4.604.96 6.88.178 2.276.267 4.853.267 7.733 0 4.267-.231 7.983-.693 11.147-.462 3.164-1.298 6.133-2.507 8.907-1.209 2.737-2.827 4.977-4.853 6.72-2.027 1.706-4.64 3.057-7.84 4.053-3.165.96-6.916 1.44-11.254 1.44Zm51.302 0c-2.738 0-5.298-.249-7.68-.747-2.347-.462-4.32-1.084-5.92-1.866-1.6-.783-2.916-1.53-3.947-2.24-.996-.711-1.831-1.423-2.507-2.134l1.334-12.96c1.457 1.956 3.413 3.663 5.866 5.12a15.58 15.58 0 0 0 7.947 2.134c2.844 0 4.889-.303 6.133-.907 1.28-.604 1.92-1.707 1.92-3.307 0-1.706-.729-3.164-2.186-4.373-1.423-1.209-3.894-2.667-7.414-4.373a80.147 80.147 0 0 1-3.253-1.707c-.889-.533-2.08-1.387-3.573-2.56-1.458-1.209-2.649-2.453-3.574-3.733-.924-1.316-1.742-2.987-2.453-5.014-.711-2.062-1.067-4.266-1.067-6.613 0-12.693 7.165-19.04 21.494-19.04 2.275 0 4.409.249 6.4.747 2.026.462 3.609.977 4.746 1.546a15.504 15.504 0 0 1 3.094 2.027c.96.747 1.564 1.28 1.813 1.6.249.284.427.516.533.693l-2.666 10.294c-1.387-1.636-3.129-2.845-5.227-3.627-2.062-.818-4.036-1.227-5.92-1.227-4.551 0-6.827 1.423-6.827 4.267 0 .747.143 1.422.427 2.027.284.604.747 1.155 1.387 1.653s1.226.924 1.76 1.28c.569.356 1.333.8 2.293 1.333.996.498 1.742.907 2.24 1.227 5.191 2.204 8.996 4.818 11.413 7.84 2.454 3.022 3.68 6.702 3.68 11.04 0 7.04-1.742 12.409-5.226 16.107-3.449 3.662-8.463 5.493-15.04 5.493ZM204.9 75V26.627h-12.48V12.493h42.986v14.134h-12.48V75H204.9Z"/><path fill="#D41442" d="M261.896 64.547c2.524 0 4.373-.711 5.547-2.134 1.173-1.422 1.759-3.11 1.759-5.066v-3.734c0-2.31-.746-3.946-2.24-4.906-1.493-.996-3.182-1.494-5.066-1.494h-4.16v17.334h4.16Zm6.56-36.054c0-2.133-.587-3.609-1.76-4.426-1.174-.854-2.862-1.28-5.067-1.28h-3.893V38.2h4.32c2.062 0 3.644-.8 4.746-2.4 1.103-1.636 1.654-3.627 1.654-5.973v-1.334Zm-2.934 46.987c-2.773 0-6.364-.071-10.773-.213a786.198 786.198 0 0 0-9.493-.267h-5.12V12.493h9.226c2.24 0 4.8-.07 7.68-.213 2.88-.178 4.96-.267 6.24-.267 4.16 0 7.663.338 10.507 1.014 2.88.675 5.138 1.689 6.774 3.04 1.635 1.35 2.791 2.915 3.466 4.693.711 1.778 1.067 3.893 1.067 6.347 0 3.769-.871 7.004-2.613 9.706-1.743 2.703-4.267 4.391-7.574 5.067 8.391.747 12.587 5.671 12.587 14.773 0 2.738-.409 5.227-1.227 7.467-.818 2.204-2.08 4.178-3.786 5.92-1.672 1.707-3.947 3.04-6.827 4s-6.258 1.44-10.134 1.44ZM292.64 75V12.493h18.186V75H292.64Zm35.385 0V26.627h-12.48V12.493h42.986v14.134h-12.48V75h-18.026Zm73.049 0h-37.813V12.493h37.013l-1.067 12.587-18.293-.533V36.6h14.4v12.48l-14.4-1.067V62.2l20.16-.533V75Zm23.456 1.12c-2.737 0-5.297-.249-7.68-.747-2.346-.462-4.32-1.084-5.92-1.866-1.6-.783-2.915-1.53-3.946-2.24-.996-.711-1.831-1.423-2.507-2.134l1.333-12.96c1.458 1.956 3.414 3.663 5.867 5.12a15.574 15.574 0 0 0 7.947 2.134c2.844 0 4.889-.303 6.133-.907 1.28-.604 1.92-1.707 1.92-3.307 0-1.706-.729-3.164-2.187-4.373-1.422-1.209-3.893-2.667-7.413-4.373a80.147 80.147 0 0 1-3.253-1.707c-.889-.533-2.08-1.387-3.574-2.56-1.457-1.209-2.648-2.453-3.573-3.733-.924-1.316-1.742-2.987-2.453-5.014-.711-2.062-1.067-4.266-1.067-6.613 0-12.693 7.165-19.04 21.493-19.04 2.276 0 4.409.249 6.4.747 2.027.462 3.609.977 4.747 1.546a15.468 15.468 0 0 1 3.093 2.027c.96.747 1.565 1.28 1.814 1.6.249.284.426.516.533.693l-2.667 10.294c-1.386-1.636-3.128-2.845-5.226-3.627-2.062-.818-4.036-1.227-5.92-1.227-4.551 0-6.827 1.423-6.827 4.267 0 .747.142 1.422.427 2.027.284.604.746 1.155 1.386 1.653.64.498 1.227.924 1.76 1.28.569.356 1.334.8 2.294 1.333.995.498 1.742.907 2.24 1.227 5.191 2.204 8.995 4.818 11.413 7.84 2.453 3.022 3.68 6.702 3.68 11.04 0 7.04-1.742 12.409-5.227 16.107-3.448 3.662-8.462 5.493-15.04 5.493Z"/><path fill="#EC4B72" d="M9.66 99.24c-.48.187-.853.28-1.12.28-.8 0-1.247-.113-1.34-.34-1.333-3.427-2.213-5.633-2.64-6.62-.04.36-.147 1.193-.32 2.5-.36 2.56-.54 4.687-.54 6.38 0 .413.027.967.08 1.66-.933 0-1.567-.107-1.9-.32a1.09 1.09 0 0 1-.48-.94c0-.133.22-1.947.66-5.44.453-3.493.68-5.927.68-7.3V89c-.387-.627-.793-1.14-1.22-1.54.493-.347 1.087-.52 1.78-.52.88 0 1.56.413 2.04 1.24.48.813 1.42 3.06 2.82 6.74l.92 2.36c.08-.133.2-.313.36-.54 3.253-4.813 4.927-8.08 5.02-9.8 0 .013.16.033.48.06.32.013.66.08 1.02.2.373.107.64.28.8.52.173.227.28.453.32.68.04.213.06.587.06 1.12 0 .52-.22 2.287-.66 5.3-.44 3.013-.66 5.127-.66 6.34 0 1.2.093 2.02.28 2.46-1.133-.293-1.907-.68-2.32-1.16-.413-.493-.62-1.173-.62-2.04 0-.507.133-1.753.4-3.74.28-1.987.473-3.573.58-4.76-.533.92-1.293 2.18-2.28 3.78-.973 1.6-1.56 2.553-1.76 2.86-.2.293-.347.52-.44.68Zm12.595-.02c0 .627.114 1.14.34 1.54.24.387.574.58 1 .58.627 0 1.22-.367 1.78-1.1.573-.733 1.027-1.673 1.36-2.82.347-1.147.52-2.233.52-3.26 0-1.04-.04-1.88-.12-2.52.4-.027.68-.04.84-.04.68 0 1.194.127 1.54.38.347.253.52.707.52 1.36 0 .253-.16 1.287-.48 3.1-.32 1.8-.48 3.247-.48 4.34 0 1.08.207 2.04.62 2.88-1-.173-1.733-.54-2.2-1.1-.466-.573-.7-1.393-.7-2.46 0-.187.027-.547.08-1.08-.36 1.267-1 2.287-1.92 3.06-.92.773-1.826 1.16-2.72 1.16-.88 0-1.593-.327-2.14-.98-.533-.667-.8-1.607-.8-2.82a9.91 9.91 0 0 1 .64-3.52c.44-1.147 1.094-2.113 1.96-2.9.867-.8 1.834-1.2 2.9-1.2.613 0 1.24.147 1.88.44-1.347.48-2.42 1.427-3.22 2.84-.8 1.4-1.2 2.773-1.2 4.12Zm12.655-.26c0 1.587.48 2.38 1.44 2.38.507 0 1-.273 1.48-.82.48-.547.867-1.28 1.16-2.2.307-.92.567-1.9.78-2.94.227-1.053.394-2.167.5-3.34.187-2.267.28-4.033.28-5.3 0-1.28-.053-2.24-.16-2.88.96.213 1.634.667 2.02 1.36.387.693.58 1.567.58 2.62 0 1.053-.226 3.013-.68 5.88-.44 2.867-.66 4.96-.66 6.28 0 1.32.06 2.44.18 3.36-.946-.253-1.6-.707-1.96-1.36-.346-.667-.52-1.5-.52-2.5-.413 1.147-1.033 2.053-1.86 2.72-.826.667-1.68 1-2.56 1-.88 0-1.6-.333-2.16-1-.546-.68-.82-1.673-.82-2.98 0-2.067.567-3.84 1.7-5.32 1.134-1.493 2.474-2.24 4.02-2.24.44 0 1.134.107 2.08.32a5.733 5.733 0 0 0-2.22 1.12 5.82 5.82 0 0 0-1.5 1.8c-.746 1.347-1.12 2.693-1.12 4.04Zm14.465-.88c-.64 0-1.267-.073-1.88-.22-.014.133-.02.34-.02.62 0 1.107.206 1.94.62 2.5.413.56.906.84 1.48.84.573 0 1.12-.173 1.64-.52.52-.347.973-.827 1.36-1.44.48.107.72.353.72.74-1.174 1.8-2.687 2.7-4.54 2.7-1.12 0-2.1-.427-2.94-1.28-.84-.867-1.26-2.067-1.26-3.6 0-1.147.22-2.233.66-3.26.44-1.04 1.14-1.913 2.1-2.62.96-.72 2.02-1.08 3.18-1.08 1.173 0 2.033.267 2.58.8.546.533.82 1.233.82 2.1 0 1.253-.44 2.187-1.32 2.8-.867.613-1.934.92-3.2.92Zm.84-5.38c-.68 0-1.254.42-1.72 1.26-.467.84-.774 1.86-.92 3.06h.3c1.16 0 2.013-.3 2.56-.9.56-.6.84-1.32.84-2.16 0-.347-.094-.64-.28-.88-.174-.253-.434-.38-.78-.38Zm19.313-1.38c.026.267.04.467.04.6 0 .64-.114 1.087-.34 1.34-.227.24-.627.36-1.2.36-.56 0-.994-.007-1.3-.02-.52 3.787-.78 6.5-.78 8.14 0 .787.013 1.353.04 1.7.04.36.133.967.28 1.82-.96-.307-1.667-.807-2.12-1.5-.454-.68-.68-1.487-.68-2.42 0-1.4.2-3.467.6-6.2.093-.693.153-1.153.18-1.38a8.774 8.774 0 0 0-2.16.68 7.968 7.968 0 0 1-.04-.66c0-.72.22-1.207.66-1.46.44-.253 1.073-.387 1.9-.4.266-1.307.62-2.433 1.06-3.38.453-.947.946-1.66 1.48-2.14 1.013-.933 2.073-1.4 3.18-1.4.746 0 1.373.227 1.88.68.52.44.78.987.78 1.64 0 .64-.22 1.2-.66 1.68-.44.48-1.02.72-1.74.72-.28 0-.554-.047-.82-.14.213-.16.42-.44.62-.84.213-.4.32-.773.32-1.12 0-.36-.08-.64-.24-.84a.705.705 0 0 0-.6-.3c-.547 0-1.107.46-1.68 1.38-.56.907-.98 2.28-1.26 4.12 1.186 0 2.053-.22 2.6-.66Zm7.204 1.66c-.867 0-1.64.587-2.32 1.76-.68 1.16-1.02 2.32-1.02 3.48 0 2.427.626 3.64 1.88 3.64.893 0 1.62-.58 2.18-1.74.56-1.173.84-2.487.84-3.94 0-2.133-.52-3.2-1.56-3.2Zm-1.7-1.8c.146 0 .28.047.4.14.133.08.2.167.2.26-1.347.933-2.154 2.233-2.42 3.9.28-.747.62-1.393 1.02-1.94.413-.547.84-.96 1.28-1.24.84-.52 1.66-.78 2.46-.78s1.48.393 2.04 1.18c.56.787.84 1.84.84 3.16 0 1.48-.3 2.84-.9 4.08-.667 1.4-1.614 2.367-2.84 2.9a5.568 5.568 0 0 1-2.28.46c-1.16 0-2.174-.447-3.04-1.34-.854-.907-1.28-2.2-1.28-3.88 0-1.693.413-3.18 1.24-4.46.826-1.293 1.92-2.107 3.28-2.44Zm11.163 5.32c.48-1.733 1.054-3.007 1.72-3.82.68-.827 1.307-1.24 1.88-1.24.587 0 1.027.22 1.32.66.294.427.44.987.44 1.68 0 .68-.206 1.307-.62 1.88-.4.573-.953.86-1.66.86-.186 0-.406-.053-.66-.16.414-.52.62-1.147.62-1.88 0-.427-.173-.64-.52-.64-.253 0-.526.18-.82.54-.293.347-.573.833-.84 1.46-.266.613-.493 1.407-.68 2.38a17.33 17.33 0 0 0-.26 3.08c0 .133.034.7.1 1.7-.426.027-.7.04-.82.04-.76 0-1.306-.133-1.64-.4-.333-.267-.5-.707-.5-1.32 0-.267.14-1.293.42-3.08.28-1.787.42-3.207.42-4.26 0-1.067-.113-2.047-.34-2.94.974.307 1.654.747 2.04 1.32.387.56.58 1.22.58 1.98 0 .747-.06 1.467-.18 2.16Zm21.64-3.66c0 .467-.2 1.1-.6 1.9-.4.787-.887 1.66-1.46 2.62a63.8 63.8 0 0 0-1.72 3.08c-.573 1.08-1.06 2.3-1.46 3.66-.4 1.373-.6 2.713-.6 4.02 0 .6.047 1.173.14 1.72-1.08-.2-1.813-.5-2.2-.9a1.886 1.886 0 0 1-.58-1.38c0-.733.533-2.18 1.6-4.34-.2-.827-.447-2.12-.74-3.88a71.902 71.902 0 0 0-.9-4.62c-.293-1.307-.633-2.28-1.02-2.92.733-.347 1.32-.52 1.76-.52.44 0 .773.1 1 .3.227.2.413.6.56 1.2.16.587.273 1.073.34 1.46.187 1.28.28 1.993.28 2.14 0 .147.053.747.16 1.8.107 1.04.187 1.727.24 2.06 2.373-4.6 3.56-7.673 3.56-9.22 1.093.56 1.64 1.167 1.64 1.82Zm7.412.14c-.866 0-1.64.587-2.32 1.76-.68 1.16-1.02 2.32-1.02 3.48 0 2.427.627 3.64 1.88 3.64.894 0 1.62-.58 2.18-1.74.56-1.173.84-2.487.84-3.94 0-2.133-.52-3.2-1.56-3.2Zm-1.7-1.8c.147 0 .28.047.4.14.134.08.2.167.2.26-1.346.933-2.153 2.233-2.42 3.9.28-.747.62-1.393 1.02-1.94.414-.547.84-.96 1.28-1.24.84-.52 1.66-.78 2.46-.78s1.48.393 2.04 1.18c.56.787.84 1.84.84 3.16 0 1.48-.3 2.84-.9 4.08-.666 1.4-1.613 2.367-2.84 2.9a5.566 5.566 0 0 1-2.28.46c-1.16 0-2.173-.447-3.04-1.34-.853-.907-1.28-2.2-1.28-3.88 0-1.693.414-3.18 1.24-4.46.827-1.293 1.92-2.107 3.28-2.44Zm14.684.28c.4-.027.68-.04.84-.04.693 0 1.22.127 1.58.38.36.253.54.72.54 1.4 0 .213-.127 1.153-.38 2.82-.253 1.653-.38 3.073-.38 4.26 0 1.187.127 2.233.38 3.14-1-.32-1.693-.773-2.08-1.36-.387-.587-.58-1.313-.58-2.18 0-.333.073-1.087.22-2.26-.413 1.52-1.047 2.8-1.9 3.84-.84 1.027-1.633 1.54-2.38 1.54-1.533 0-2.3-1.107-2.3-3.32 0-.733.107-1.753.32-3.06.227-1.32.34-2.32.34-3 0-.68-.093-1.367-.28-2.06 1.107 0 1.907.147 2.4.44.507.28.76.847.76 1.7 0 .453-.14 1.353-.42 2.7-.28 1.347-.42 2.36-.42 3.04 0 .987.267 1.48.8 1.48.267 0 .573-.18.92-.54.347-.373.68-.86 1-1.46.32-.613.587-1.373.8-2.28.227-.92.34-1.847.34-2.78 0-.947-.04-1.747-.12-2.4Z"/></svg>